<?xml version="1.0" encoding="UTF-8"?><svg id="Layer_2" xmlns="http://www.w3.org/2000/svg" xmlns:xlink="http://www.w3.org/1999/xlink" viewBox="0 0 900 199.9"><defs><style>.cls-1{fill:url(#linear-gradient);}.cls-1,.cls-2,.cls-3,.cls-4{stroke-width:0px;}.cls-2{fill:url(#linear-gradient-2);}.cls-3{fill:url(#linear-gradient-3);}.cls-4{fill:#fff;}</style><linearGradient id="linear-gradient" x1="159.29" y1="105" x2="216.57" y2="56.93" gradientUnits="userSpaceOnUse"><stop offset="0" stop-color="#00dbff"/><stop offset="1" stop-color="#00ff75"/></linearGradient><linearGradient id="linear-gradient-2" x1="139.35" y1="126.97" x2="148.86" y2="118.99" xlink:href="#linear-gradient"/><linearGradient id="linear-gradient-3" x1="148.82" y1="132.65" x2="240.15" y2="56.01" xlink:href="#linear-gradient"/></defs><g id="Layer_1-2"><path class="cls-4" d="M66.91,143.63H0V0h64.66c29.26,0,46.65,14.53,46.65,37.24,0,17.39-10.43,28.65-24.35,32.74,16.78,3.48,27.62,18.21,27.62,34.58,0,23.73-17.39,39.08-47.67,39.08ZM57.9,28.03h-22.92v30.08h22.92c11.46,0,17.8-5.12,17.8-14.94s-6.34-15.14-17.8-15.14ZM60.36,83.68h-25.37v31.71h25.78c11.66,0,18.41-5.32,18.41-15.55s-7.16-16.16-18.82-16.16Z"/><path class="cls-4" d="M310.8,111.92l-18.41,31.71h-37.85l37.65-58.31-38.67-55.86h39.28l21.89,31.51,18.41-31.51h37.85l-38.26,57.49,39.28,56.68h-39.28l-21.89-31.71Z"/><path class="cls-4" d="M420.47,0v116.63h45.83v27.01h-80.82V0h34.99Z"/><path class="cls-4" d="M526.46,27.83c16.98,0,29.05,7.77,35.19,17.8v-16.16h34.99v114.17h-34.99v-16.16c-6.34,10.03-18.41,17.8-35.4,17.8-27.83,0-50.13-22.92-50.13-58.93s22.3-58.52,50.33-58.52ZM536.69,58.31c-13.09,0-24.96,9.82-24.96,28.03s11.87,28.44,24.96,28.44,24.96-10.03,24.96-28.24-11.66-28.24-24.96-28.24Z"/><path class="cls-4" d="M700.78,81.64c0-15.55-8.59-24.14-21.89-24.14s-21.89,8.59-21.89,24.14v62h-34.99V29.46h34.99v15.14c6.96-9.62,19.23-16.37,34.58-16.37,26.39,0,43.99,18.01,43.99,48.7v66.7h-34.78v-62Z"/><path class="cls-4" d="M803.29,27.83c16.78,0,29.05,7.57,35.19,17.8v-16.16h34.99v113.97c0,30.49-17.6,56.47-57.09,56.47-33.96,0-56.06-17.19-59.13-44.4h34.58c2.25,8.59,10.84,14.12,22.92,14.12,13.3,0,23.73-6.96,23.73-26.19v-16.16c-6.34,10.03-18.41,18.01-35.19,18.01-28.03,0-50.33-22.92-50.33-58.93s22.3-58.52,50.33-58.52ZM813.52,58.31c-13.09,0-24.96,9.82-24.96,28.03s11.87,28.44,24.96,28.44,24.96-10.03,24.96-28.24-11.66-28.24-24.96-28.24Z"/><path class="cls-1" d="M175.86,45.7l10.66-8.95h.01s.02,0,.02,0c.38.06.75.12,1.13.19,22.89,4.56,37.72,26.84,33.15,49.7-4.52,22.67-26.4,37.42-49.02,33.27,4.88-1.11,9.57-3.35,13.67-6.78,13.73-11.52,15.53-32,4-45.74-6.61-7.87-16.15-11.81-25.68-11.58l12.06-10.12Z"/><path class="cls-2" d="M139.35,126.97c-2.21-2.63-1.86-6.55.77-8.75s6.55-1.86,8.75.77c2.21,2.63,1.86,6.55-.77,8.75-2.63,2.21-6.55,1.86-8.75-.77Z"/><path class="cls-3" d="M199.32,145.26c-19.21,3.86-38.12-1.94-51.7-14.04.79-.34,1.55-.79,2.25-1.38,1.42-1.19,2.38-2.74,2.85-4.4,2.97,1.71,6.12,3.16,9.43,4.3,28.27,9.72,59.04-5.34,68.73-33.6,9.72-28.27-5.34-59.04-33.6-68.73,24.61,4.05,44.13,22.9,48.99,47.31,6.52,32.45-14.5,64.02-46.95,70.54Z"/><path class="cls-4" d="M888.37,22.27c2.74,0,4.11,1.58,4.11,3.49,0,1.38-.77,2.79-2.59,3.28l2.72,4.61h-2.64l-2.51-4.43h-1.08v4.43h-2.28v-11.38h4.27ZM888.29,24.16h-1.91v3.34h1.91c1.27,0,1.84-.67,1.84-1.7s-.57-1.65-1.84-1.65Z"/><path class="cls-4" d="M888.3,39.42c-6.45,0-11.7-5.25-11.7-11.7s5.25-11.7,11.7-11.7,11.7,5.25,11.7,11.7-5.25,11.7-11.7,11.7ZM888.3,17.85c-5.44,0-9.87,4.43-9.87,9.87s4.43,9.87,9.87,9.87,9.87-4.43,9.87-9.87-4.43-9.87-9.87-9.87Z"/></g></svg>